<?xml version="1.0" encoding="utf-8"?>
<!-- Generator: Adobe Illustrator 17.0.0, SVG Export Plug-In . SVG Version: 6.00 Build 0)  -->
<!DOCTYPE svg PUBLIC "-//W3C//DTD SVG 1.1//EN" "http://www.w3.org/Graphics/SVG/1.1/DTD/svg11.dtd">
<svg version="1.1" id="Raycille_Dimla" xmlns="http://www.w3.org/2000/svg" xmlns:xlink="http://www.w3.org/1999/xlink" x="0px" y="0px" width="100%" height="100px" viewBox="0 0 412.658 94.937" enable-background="new 0 0 412.658 94.937" xml:space="preserve">
	<path fill="none" stroke="#000000" stroke-width="2" stroke-miterlimit="2" d="M49.046,60.878
		c-0.532-1.646-1.049-3.107-1.553-4.381c-0.505-1.274-0.943-2.362-1.314-3.266c-2.071,0.69-4.329,1.168-6.771,1.434
		c0,3.399,0.08,6.293,0.239,8.683c0.052,1.487,0.119,2.748,0.199,3.784c0.08,1.036,0.16,1.925,0.239,2.668s0.172,1.42,0.279,2.031
		c0.105,0.61,0.265,1.208,0.478,1.792c-1.063,0.796-2.085,1.38-3.067,1.752c-0.983,0.371-1.846,0.637-2.589,0.796
		c-0.904,0.212-1.7,0.265-2.39,0.16c-0.267-0.745-0.505-1.527-0.717-2.35c-0.212-0.824-0.358-1.939-0.438-3.346
		c-0.08-1.408-0.12-3.199-0.12-5.377c0-2.177,0.08-4.965,0.239-8.364c0.052-0.371,0.08-0.743,0.08-1.115
		c0-0.371,0.026-0.743,0.08-1.115c-0.478-0.052-0.97-0.106-1.474-0.159c-0.505-0.052-0.996-0.106-1.474-0.16
		c-0.319-0.849-0.531-1.605-0.637-2.27c-0.107-0.664-0.159-1.208-0.159-1.633c0-0.53,0.052-0.956,0.159-1.275
		c0.849,0.16,1.699,0.239,2.549,0.239h1.195c0.106-2.23,0.212-4.5,0.319-6.811c0.106-2.31,0.199-4.567,0.279-6.771
		c0.08-2.203,0.146-4.302,0.199-6.293c0.052-1.992,0.105-3.81,0.159-5.457c-1.593,1.063-2.975,2.443-4.142,4.142
		c-1.169,1.7-1.965,3.664-2.39,5.895c-0.691-0.105-1.274-0.438-1.752-0.996s-0.876-1.127-1.195-1.712
		c-0.371-0.69-0.69-1.46-0.956-2.31c-0.265-1.008-0.265-2.031,0-3.067c0.266-1.036,0.665-2.018,1.195-2.947
		c0.532-0.929,1.142-1.752,1.832-2.47c0.689-0.717,1.354-1.287,1.992-1.712c1.115-0.689,2.27-1.314,3.465-1.872
		c1.195-0.558,2.536-1.022,4.023-1.394c0.583-0.583,1.234-1.115,1.952-1.593c0.717-0.478,1.394-0.77,2.031-0.876
		c0.902-0.211,1.406,0.346,1.513,1.673c0.478-0.052,0.982-0.092,1.514-0.12c0.53-0.026,1.088-0.04,1.673-0.04
		c2.018,0,4.115,0.318,6.293,0.956c2.177,0.637,4.182,1.661,6.014,3.067c1.832,1.408,3.332,3.24,4.5,5.497
		c1.167,2.258,1.752,5.006,1.752,8.244c0,3.665-0.864,7.038-2.589,10.117c-1.727,3.081-4.182,5.629-7.368,7.647
		c0.371,0.956,0.849,2.151,1.434,3.584c0.584,1.434,1.167,3.055,1.752,4.859c0.849,2.23,1.765,4.315,2.748,6.253
		c0.982,1.939,2.004,3.625,3.067,5.059c1.062,1.434,2.177,2.589,3.346,3.465c1.167,0.876,2.336,1.394,3.505,1.553
		c-0.691,1.062-1.487,1.805-2.39,2.23c-0.904,0.424-1.806,0.689-2.708,0.796c-1.009,0.16-2.071,0.16-3.186,0
		c-1.541-0.318-2.868-1.063-3.983-2.23c-1.115-1.169-2.085-2.577-2.908-4.222c-0.824-1.646-1.567-3.412-2.23-5.297
		C50.174,64.37,49.576,62.578,49.046,60.878z M39.806,26.943c0,1.168-0.027,2.576-0.08,4.222c-0.054,1.647-0.093,3.425-0.12,5.337
		c-0.027,1.912-0.067,3.917-0.12,6.014c-0.053,2.099-0.08,4.182-0.08,6.253c1.434-0.212,3.013-0.558,4.74-1.036
		c1.725-0.478,3.332-1.274,4.819-2.39c1.486-1.115,2.734-2.602,3.744-4.461c1.008-1.858,1.514-4.248,1.514-7.169
		c0-2.23-0.386-4.128-1.155-5.696c-0.771-1.565-1.766-2.84-2.987-3.823c-1.222-0.982-2.563-1.699-4.023-2.151
		c-1.461-0.451-2.907-0.677-4.341-0.677c-0.266,0-0.531,0-0.796,0c-0.267,0-0.558,0.027-0.876,0.08
		C39.885,23.147,39.806,24.98,39.806,26.943z"></path>
	<path fill="none" stroke="#000000" stroke-width="2" stroke-miterlimit="2" d="M89.751,65.02c0.106,0.372,0.265,0.717,0.478,1.036
		c0.159,0.266,0.385,0.518,0.677,0.757c0.291,0.239,0.649,0.386,1.075,0.438c-0.372,0.744-0.744,1.249-1.115,1.513
		c-0.213,0.16-0.398,0.267-0.558,0.319c-0.478,0.159-1.195,0.239-2.15,0.239c-0.956,0-1.886-0.291-2.788-0.876
		c-0.319-0.265-0.611-0.664-0.876-1.195c-0.266-0.424-0.492-1.022-0.677-1.792c-0.187-0.769-0.333-1.765-0.438-2.987
		c-0.744,1.593-1.581,2.855-2.509,3.784c-0.93,0.93-1.846,1.606-2.748,2.031c-1.009,0.585-2.045,0.928-3.106,1.035
		c-1.328,0.106-2.589-0.119-3.784-0.677s-2.205-1.407-3.027-2.549c-0.824-1.141-1.447-2.535-1.872-4.182
		c-0.426-1.646-0.558-3.505-0.398-5.576c0.159-2.177,0.584-4.115,1.274-5.815c0.689-1.699,1.514-3.212,2.47-4.541
		c0.956-1.327,1.964-2.456,3.027-3.385c1.062-0.929,2.083-1.699,3.067-2.31c0.982-0.61,1.832-1.062,2.549-1.354
		c0.717-0.291,1.181-0.464,1.394-0.518c0.583-0.159,1.088-0.212,1.514-0.159c0.424,0.053,0.796,0.292,1.115,0.717
		c0.105,0.159,0.239,0.346,0.398,0.558c0.106,0.213,0.239,0.492,0.398,0.836c0.159,0.346,0.291,0.73,0.398,1.155
		c-1.275,0.585-2.47,1.235-3.585,1.952s-2.138,1.581-3.066,2.589c-0.93,1.009-1.74,2.23-2.43,3.664
		c-0.691,1.434-1.222,3.187-1.593,5.258c-0.531,2.603-0.386,4.7,0.438,6.292c0.823,1.593,1.952,2.258,3.386,1.992
		c0.849-0.265,1.673-0.769,2.469-1.514c0.689-0.637,1.42-1.593,2.19-2.868c0.77-1.274,1.5-3.027,2.191-5.257
		c0.265-3.186,0.49-5.695,0.677-7.527c0.186-1.833,0.358-3.226,0.518-4.182c0.211-1.115,0.371-1.858,0.478-2.23
		c0.16-0.265,0.478-0.518,0.956-0.757c0.478-0.239,1.008-0.438,1.593-0.597c0.583-0.16,1.115-0.251,1.593-0.279
		c0.478-0.026,0.796-0.013,0.956,0.04c0.106,0.054,0.16,0.705,0.16,1.952c0,1.249-0.04,2.815-0.12,4.7
		c-0.08,1.886-0.173,3.931-0.279,6.134c-0.107,2.204-0.199,4.289-0.279,6.253c-0.08,1.965-0.133,3.678-0.159,5.138
		C89.604,63.733,89.644,64.649,89.751,65.02z"></path>
	<path fill="none" stroke="#000000" stroke-width="2" stroke-miterlimit="2" d="M120.18,38.494
		c0.106,4.674,0.186,8.762,0.239,12.267c0.052,3.505,0.105,6.452,0.159,8.842c0.052,2.815,0.08,5.231,0.08,7.249
		c0.052,2.496-0.147,5.084-0.597,7.767c-0.452,2.681-1.183,5.138-2.191,7.368c-1.009,2.23-2.337,4.063-3.983,5.497
		c-1.646,1.434-3.638,2.151-5.974,2.151c-2.815,0-4.966-0.571-6.452-1.713c-1.487-1.143-2.577-2.43-3.266-3.863
		c-0.691-1.434-1.089-2.775-1.195-4.022c-0.107-1.249-0.159-1.979-0.159-2.191c0-0.426,0.265-0.903,0.796-1.434
		c0.53-0.532,1.327-1.01,2.39-1.434c0.425-0.159,0.849-0.292,1.275-0.398c0.371-0.107,0.743-0.187,1.115-0.239
		c0.371-0.053,0.717-0.027,1.035,0.08c-0.531,0.956-0.836,2.044-0.916,3.266c-0.08,1.221,0.08,2.376,0.478,3.465
		c0.398,1.088,0.996,2.004,1.792,2.749c0.796,0.743,1.805,1.115,3.027,1.115c1.699,0,3.04-0.492,4.022-1.474
		c0.982-0.983,1.725-2.191,2.23-3.625c0.504-1.434,0.823-2.947,0.956-4.541c0.132-1.593,0.199-3.001,0.199-4.222
		c0-0.956-0.014-2.191-0.04-3.704c-0.027-1.514-0.12-3.199-0.279-5.059c-0.637,1.063-1.381,2.085-2.23,3.067
		c-0.85,0.983-1.752,1.846-2.708,2.589c-0.956,0.745-1.926,1.341-2.908,1.792c-0.983,0.451-1.952,0.677-2.907,0.677
		c-1.647,0-2.975-0.518-3.983-1.553c-1.01-1.036-1.78-2.336-2.31-3.903c-0.532-1.566-0.89-3.266-1.076-5.098
		c-0.187-1.833-0.279-3.518-0.279-5.059c0-1.167,0.052-2.589,0.16-4.261c0.105-1.673,0.239-3.279,0.398-4.819
		c0.16-1.54,0.358-2.88,0.598-4.023c0.239-1.141,0.49-1.792,0.757-1.952c1.54-0.902,3.053-1.406,4.54-1.513
		c1.486-0.106,2.602,0.08,3.346,0.558c-0.637,0.478-1.168,1.274-1.593,2.39c-0.426,1.115-0.771,2.35-1.036,3.704
		c-0.267,1.354-0.452,2.762-0.558,4.222c-0.107,1.461-0.16,2.775-0.16,3.943c0,0.956,0.026,2.099,0.08,3.425
		c0.052,1.328,0.171,2.603,0.358,3.824c0.186,1.222,0.464,2.258,0.836,3.106c0.371,0.85,0.849,1.275,1.434,1.275
		c1.167,0,2.257-0.425,3.266-1.275c1.008-0.849,1.898-1.912,2.668-3.186c0.769-1.274,1.367-2.641,1.792-4.103
		c0.424-1.46,0.637-2.828,0.637-4.102v-0.638c-0.107-1.38-0.213-2.694-0.319-3.943c-0.107-1.247-0.199-2.376-0.279-3.385
		c-0.08-1.008-0.133-1.845-0.159-2.509c-0.027-0.664-0.04-1.102-0.04-1.314c0-0.53,0.358-1.008,1.076-1.434
		c0.717-0.425,1.513-0.729,2.39-0.916c0.876-0.186,1.673-0.251,2.39-0.199C119.821,37.83,120.18,38.069,120.18,38.494z"></path>
	<path fill="none" stroke="#000000" stroke-width="2" stroke-miterlimit="2" d="M148.299,59.046c0,0.585-0.199,1.474-0.597,2.668
		c-0.398,1.195-1.049,2.39-1.952,3.584c-0.904,1.195-2.059,2.244-3.465,3.146c-1.408,0.902-3.12,1.354-5.138,1.354
		c-2.868,0-5.271-0.783-7.209-2.35c-1.939-1.566-3.306-3.81-4.103-6.731c-0.637-2.442-0.81-5.058-0.518-7.846
		c0.291-2.788,1.048-5.376,2.27-7.767c1.221-2.39,2.92-4.421,5.098-6.094c2.177-1.673,4.832-2.589,7.966-2.748
		c1.593-0.052,2.92,0.239,3.983,0.876c1.062,0.637,1.884,1.461,2.469,2.469c0.584,1.009,0.929,2.111,1.036,3.306
		c0.106,1.195-0.014,2.324-0.358,3.385c-0.346,1.063-0.876,1.952-1.593,2.669c-0.717,0.717-1.633,1.103-2.748,1.155
		c-1.115,0.107-2.031-0.04-2.748-0.438c-0.717-0.398-1.275-0.889-1.673-1.474c-0.398-0.584-0.665-1.195-0.797-1.832
		c-0.133-0.637-0.146-1.195-0.04-1.673c0.159-0.689,0.424-1.327,0.796-1.912c0.319-0.53,0.783-1.062,1.394-1.593
		c0.61-0.53,1.42-0.956,2.43-1.275c-0.16-0.105-0.319-0.159-0.478-0.159s-0.319-0.026-0.478-0.08c-0.213,0-0.372-0.026-0.478-0.08
		c-0.85,0-1.819,0.292-2.907,0.876c-1.089,0.585-2.125,1.514-3.107,2.788c-0.983,1.274-1.806,2.908-2.469,4.899
		c-0.665,1.992-0.996,4.395-0.996,7.209c0,1.222,0.132,2.43,0.398,3.625c0.265,1.195,0.677,2.258,1.234,3.187
		c0.558,0.93,1.247,1.672,2.071,2.23c0.823,0.558,1.792,0.836,2.907,0.836c1.274,0,2.402-0.279,3.386-0.836
		c0.982-0.558,1.818-1.207,2.509-1.951c0.689-0.743,1.234-1.486,1.633-2.23c0.398-0.743,0.677-1.301,0.836-1.673
		c0.159-0.319,0.438-0.478,0.836-0.478C148.1,58.089,148.299,58.408,148.299,59.046z"></path>
	<path fill="none" stroke="#000000" stroke-width="2" stroke-miterlimit="2" d="M158.973,25.032c1.062,0,2.071,0.318,3.027,0.956
		c0.956,0.637,1.434,1.487,1.434,2.549c0,0.796-0.199,1.567-0.598,2.31c-0.398,0.744-0.89,1.408-1.474,1.991
		c-0.585,0.585-1.249,1.049-1.991,1.394c-0.745,0.346-1.434,0.518-2.071,0.518c-0.85,0-1.541-0.146-2.071-0.438
		c-0.531-0.291-0.943-0.637-1.234-1.036c-0.292-0.398-0.492-0.836-0.598-1.314c-0.107-0.478-0.159-0.929-0.159-1.354
		c0-0.53,0.08-1.127,0.239-1.792c0.16-0.664,0.451-1.275,0.876-1.833c0.424-0.557,1.008-1.021,1.752-1.394
		C156.849,25.218,157.804,25.032,158.973,25.032z M153.397,40.883c0-0.318,0.424-0.664,1.274-1.036
		c0.849-0.371,1.792-0.677,2.828-0.916c1.036-0.239,1.991-0.371,2.868-0.398c0.876-0.026,1.314,0.173,1.314,0.597
		c0,0.796-0.054,1.925-0.16,3.385c-0.107,1.461-0.239,3.001-0.398,4.62c-0.16,1.621-0.319,3.24-0.478,4.859
		c-0.159,1.621-0.267,2.987-0.319,4.102c-0.107,1.169-0.213,2.443-0.318,3.824c-0.107,1.169-0.187,2.469-0.239,3.903
		c-0.053,1.434-0.053,2.895,0,4.381c0,0.267-0.266,0.532-0.796,0.797c-0.532,0.265-1.115,0.464-1.752,0.597
		c-0.637,0.132-1.249,0.199-1.832,0.199c-0.585,0-0.904-0.107-0.956-0.318c-0.107-0.213-0.213-0.584-0.319-1.115
		c-0.107-0.53-0.212-1.287-0.318-2.271c-0.107-0.982-0.187-2.256-0.239-3.823c-0.054-1.566-0.028-3.465,0.08-5.696
		c0.211-4.407,0.239-7.819,0.08-10.236C153.557,43.924,153.449,42.106,153.397,40.883z M156.982,32.44
		c0.319,0,0.677-0.119,1.076-0.358c0.398-0.239,0.769-0.518,1.115-0.836c0.345-0.318,0.637-0.663,0.876-1.035
		c0.239-0.371,0.358-0.69,0.358-0.956c0-0.424-0.212-0.637-0.637-0.637c-0.266,0-0.597,0.107-0.996,0.318
		c-0.398,0.213-0.784,0.466-1.155,0.757c-0.373,0.292-0.677,0.611-0.917,0.956c-0.239,0.346-0.358,0.677-0.358,0.996
		C156.344,32.174,156.556,32.44,156.982,32.44z"></path>
	<path fill="none" stroke="#000000" stroke-width="2" stroke-miterlimit="2" d="M177.533,17.464
		c-0.107,1.912-0.292,4.116-0.558,6.612c-0.266,2.497-0.545,5.178-0.836,8.045c-0.292,2.868-0.585,5.869-0.876,9.001
		c-0.292,3.134-0.545,6.293-0.757,9.479c-0.213,3.186-0.306,5.775-0.279,7.767c0.026,1.991,0.146,3.625,0.358,4.899
		c0.212,1.274,0.504,2.284,0.876,3.027c0.371,0.744,0.849,1.461,1.434,2.151c-0.69,0.426-1.328,0.743-1.912,0.956
		c-0.585,0.211-1.089,0.371-1.514,0.478c-0.531,0.16-1.009,0.239-1.434,0.239c-0.797,0-1.487-0.386-2.071-1.155
		c-0.585-0.769-1.049-1.765-1.394-2.987c-0.346-1.221-0.611-2.589-0.796-4.103c-0.187-1.514-0.279-3.013-0.279-4.5
		c0-1.593,0.052-3.438,0.159-5.536c0.106-2.098,0.226-4.328,0.358-6.691c0.132-2.362,0.279-4.832,0.438-7.408
		c0.159-2.575,0.291-5.138,0.398-7.687c0.106-1.964,0.212-3.744,0.319-5.337c0.106-1.38,0.186-2.641,0.239-3.784
		c0.052-1.141,0.026-1.818-0.08-2.031c0.319-0.424,0.717-0.743,1.195-0.956c0.478-0.211,0.929-0.398,1.354-0.558
		c0.53-0.159,1.062-0.291,1.593-0.398h1.514c0.424,0,0.876,0.04,1.354,0.119S177.215,17.305,177.533,17.464z"></path>
	<path fill="none" stroke="#000000" stroke-width="2" stroke-miterlimit="2" d="M191.633,17.464
		c-0.107,1.912-0.292,4.116-0.558,6.612c-0.266,2.497-0.545,5.178-0.836,8.045c-0.292,2.868-0.585,5.869-0.876,9.001
		c-0.292,3.134-0.545,6.293-0.757,9.479c-0.213,3.186-0.306,5.775-0.279,7.767c0.026,1.991,0.146,3.625,0.358,4.899
		c0.212,1.274,0.504,2.284,0.876,3.027c0.371,0.744,0.849,1.461,1.434,2.151c-0.69,0.426-1.328,0.743-1.912,0.956
		c-0.585,0.211-1.089,0.371-1.514,0.478c-0.531,0.16-1.009,0.239-1.434,0.239c-0.797,0-1.487-0.386-2.071-1.155
		c-0.585-0.769-1.049-1.765-1.394-2.987c-0.346-1.221-0.611-2.589-0.796-4.103c-0.187-1.514-0.279-3.013-0.279-4.5
		c0-1.593,0.052-3.438,0.159-5.536c0.106-2.098,0.226-4.328,0.358-6.691c0.132-2.362,0.279-4.832,0.438-7.408
		c0.159-2.575,0.291-5.138,0.398-7.687c0.106-1.964,0.212-3.744,0.319-5.337c0.106-1.38,0.186-2.641,0.239-3.784
		c0.052-1.141,0.026-1.818-0.08-2.031c0.319-0.424,0.717-0.743,1.195-0.956c0.478-0.211,0.929-0.398,1.354-0.558
		c0.53-0.159,1.062-0.291,1.593-0.398h1.514c0.424,0,0.876,0.04,1.354,0.119S191.314,17.305,191.633,17.464z"></path>
	<path fill="none" stroke="#000000" stroke-width="2" stroke-miterlimit="2" d="M206.05,69.959c-3.717,0-6.585-1.248-8.603-3.744
		c-2.019-2.496-3.027-5.761-3.027-9.798c0-2.814,0.411-5.457,1.234-7.926c0.823-2.47,1.924-4.606,3.306-6.413
		c1.38-1.805,2.987-3.226,4.819-4.262c1.832-1.036,3.756-1.553,5.775-1.553c1.963,0,3.636,0.705,5.017,2.111
		c1.381,1.408,2.071,3.413,2.071,6.014c0,1.7-0.372,3.386-1.115,5.058c-0.744,1.673-1.713,3.16-2.907,4.461
		c-1.195,1.302-2.509,2.35-3.943,3.146c-1.434,0.797-2.815,1.195-4.142,1.195c-0.851,0-1.567-0.105-2.151-0.318
		c-0.585-0.212-1.115-0.53-1.593-0.956c0.159,3.027,0.823,5.138,1.991,6.333c1.168,1.195,2.681,1.792,4.541,1.792
		c1.274,0,2.401-0.265,3.385-0.796c0.982-0.53,1.818-1.142,2.509-1.832c0.689-0.69,1.247-1.394,1.673-2.111
		c0.424-0.717,0.717-1.261,0.876-1.633c0.159-0.319,0.438-0.478,0.836-0.478c0.398,0,0.598,0.319,0.598,0.956
		c0,0.585-0.199,1.474-0.598,2.668c-0.397,1.195-1.049,2.39-1.951,3.584c-0.903,1.195-2.059,2.244-3.464,3.146
		C209.78,69.506,208.068,69.959,206.05,69.959z M209.715,39.689c-0.319,0-0.916,0.333-1.793,0.996
		c-0.876,0.665-1.806,1.633-2.788,2.908s-1.885,2.802-2.708,4.58c-0.824,1.78-1.342,3.784-1.553,6.014
		c3.186-0.743,5.708-1.912,7.568-3.505c1.857-1.593,2.787-3.929,2.787-7.01c0-1.54-0.187-2.589-0.558-3.146
		C210.298,39.967,209.98,39.689,209.715,39.689z"></path>
	<path fill="none" stroke="#000000" stroke-width="2" stroke-miterlimit="2" d="M241.258,33.714
		c-0.426-0.052-0.837-0.319-1.235-0.797c-0.397-0.478-0.757-1.008-1.075-1.593c-0.372-0.637-0.717-1.38-1.035-2.23
		c-0.372-1.062-0.598-1.978-0.678-2.749c-0.079-0.769-0.039-1.446,0.12-2.031c0.159-0.583,0.424-1.115,0.797-1.593
		c0.37-0.478,0.822-0.956,1.354-1.434c0.638-0.583,1.805-1.327,3.505-2.23c1.699-0.902,3.664-1.673,5.895-2.31v-0.796
		c0-0.265,0.013-0.504,0.04-0.717c0.026-0.212,0.04-0.425,0.04-0.638l6.293-2.071c0.424-0.159,0.876-0.172,1.355-0.04
		c0.478,0.133,0.663,0.625,0.558,1.474c0,0.267-0.014,0.532-0.04,0.797c-0.027,0.266-0.067,0.558-0.12,0.876
		c3.398,0.107,6.492,0.797,9.28,2.071s5.178,3.015,7.169,5.217c1.992,2.205,3.545,4.819,4.66,7.847
		c1.115,3.027,1.673,6.32,1.673,9.877c0,5.257-0.744,9.825-2.23,13.701c-1.487,3.877-3.425,7.169-5.814,9.878
		c-2.39,2.708-5.099,4.885-8.125,6.532c-3.027,1.646-6.055,2.84-9.081,3.584c-0.372,0.371-0.877,0.743-1.514,1.115
		c-0.638,0.371-1.328,0.689-2.071,0.956c-0.744,0.265-1.501,0.464-2.271,0.597c-0.771,0.132-1.447,0.146-2.031,0.04
		c0-0.107,0.013-0.267,0.04-0.478c0.026-0.213,0.04-0.398,0.04-0.558c0-0.213,0.026-0.426,0.08-0.637
		c-2.071,0.106-3.878,0-5.417-0.319c-0.372-0.213-0.717-0.611-1.036-1.195c-0.159-0.213-0.292-0.478-0.397-0.796
		c-0.16-0.267-0.267-0.532-0.319-0.796c-0.159-0.478-0.159-1.063,0-1.753c2.602,0.319,5.099,0.319,7.488,0
		c0.159-2.282,0.318-5.058,0.478-8.324c0.159-3.266,0.319-6.811,0.479-10.634c0.105-2.23,0.199-4.606,0.278-7.129
		c0.08-2.522,0.146-5.045,0.199-7.567c0.053-2.522,0.105-4.979,0.159-7.369c0.053-2.39,0.08-4.593,0.08-6.611
		c-2.549,1.009-4.528,2.457-5.935,4.341C241.483,29.108,240.939,31.272,241.258,33.714z M255.517,34.192
		c-0.213,3.559-0.372,7.038-0.479,10.436c-0.106,3.399-0.173,6.611-0.199,9.638c-0.027,3.027-0.014,5.775,0.04,8.245
		c0.053,2.469,0.105,4.554,0.159,6.253c5.099-1.912,9.173-5.124,12.228-9.638c3.053-4.513,4.58-10.169,4.58-16.967
		c0-2.973-0.358-5.695-1.075-8.165c-0.717-2.47-1.74-4.593-3.066-6.373c-1.328-1.779-2.922-3.173-4.779-4.182
		c-1.86-1.008-3.903-1.566-6.134-1.673h-0.319c-0.159,1.593-0.318,3.413-0.478,5.457C255.836,29.267,255.676,31.591,255.517,34.192z
		"></path>
	<path fill="none" stroke="#000000" stroke-width="2" stroke-miterlimit="2" d="M290.407,25.032c1.063,0,2.071,0.318,3.027,0.956
		s1.434,1.487,1.434,2.549c0,0.796-0.199,1.567-0.597,2.31c-0.398,0.744-0.891,1.408-1.474,1.991
		c-0.585,0.585-1.249,1.049-1.992,1.394c-0.744,0.346-1.434,0.518-2.07,0.518c-0.851,0-1.541-0.146-2.071-0.438
		c-0.532-0.291-0.943-0.637-1.235-1.036c-0.292-0.398-0.491-0.836-0.597-1.314c-0.107-0.478-0.16-0.929-0.16-1.354
		c0-0.53,0.08-1.127,0.239-1.792c0.159-0.664,0.451-1.275,0.876-1.833c0.425-0.557,1.009-1.021,1.753-1.394
		C288.283,25.218,289.239,25.032,290.407,25.032z M284.832,40.883c0-0.318,0.424-0.664,1.274-1.036
		c0.849-0.371,1.792-0.677,2.827-0.916c1.036-0.239,1.992-0.371,2.868-0.398c0.876-0.026,1.314,0.173,1.314,0.597
		c0,0.796-0.054,1.925-0.159,3.385c-0.107,1.461-0.239,3.001-0.398,4.62c-0.159,1.621-0.318,3.24-0.479,4.859
		c-0.159,1.621-0.266,2.987-0.318,4.102c-0.106,1.169-0.213,2.443-0.318,3.824c-0.107,1.169-0.187,2.469-0.239,3.903
		c-0.054,1.434-0.054,2.895,0,4.381c0,0.267-0.267,0.532-0.797,0.797c-0.531,0.265-1.115,0.464-1.752,0.597
		c-0.638,0.132-1.248,0.199-1.832,0.199c-0.585,0-0.903-0.107-0.956-0.318c-0.107-0.213-0.213-0.584-0.318-1.115
		c-0.107-0.53-0.213-1.287-0.319-2.271c-0.106-0.982-0.187-2.256-0.238-3.823c-0.054-1.566-0.027-3.465,0.079-5.696
		c0.212-4.407,0.239-7.819,0.08-10.236C284.991,43.924,284.884,42.106,284.832,40.883z M288.416,32.44
		c0.319,0,0.678-0.119,1.075-0.358c0.398-0.239,0.77-0.518,1.115-0.836c0.345-0.318,0.638-0.663,0.877-1.035
		c0.238-0.371,0.358-0.69,0.358-0.956c0-0.424-0.213-0.637-0.638-0.637c-0.267,0-0.598,0.107-0.995,0.318
		c-0.398,0.213-0.784,0.466-1.155,0.757c-0.372,0.292-0.678,0.611-0.916,0.956c-0.239,0.346-0.358,0.677-0.358,0.996
		C287.779,32.174,287.99,32.44,288.416,32.44z"></path>
	<path fill="none" stroke="#000000" stroke-width="2" stroke-miterlimit="2" d="M316.217,44.229c-0.426,0-0.89,0.227-1.394,0.677
		c-0.506,0.452-0.996,1.063-1.475,1.832c-0.478,0.771-0.955,1.621-1.434,2.549c-0.478,0.93-0.903,1.872-1.274,2.828
		c-0.903,2.23-1.779,4.514-2.629,6.85c-0.85,2.338-1.354,4.355-1.513,6.054c-0.054,0.159-0.08,0.306-0.08,0.438
		c0,0.133,0,0.253,0,0.358c-0.054,0.107-0.08,0.267-0.08,0.478c-0.106,0.744-0.252,1.342-0.438,1.792
		c-0.187,0.452-0.571,0.757-1.155,0.916c-0.638,0.106-1.274,0.186-1.912,0.239c-0.637,0.052-1.248,0-1.832-0.159
		c-0.372-0.106-0.65-0.305-0.836-0.598c-0.187-0.291-0.318-0.637-0.398-1.035c-0.08-0.398-0.133-0.783-0.159-1.155
		c-0.027-0.371-0.04-0.689-0.04-0.956c0-0.319,0.026-1.314,0.08-2.987c0.052-1.673,0.105-3.571,0.159-5.696
		c0.052-2.123,0.079-4.208,0.079-6.253c0-2.043-0.027-3.597-0.079-4.66c-0.107-0.743-0.213-1.434-0.319-2.071
		c-0.106-0.584-0.226-1.167-0.358-1.752c-0.133-0.584-0.332-1.088-0.597-1.514c0.583-0.318,1.167-0.583,1.752-0.796
		c0.584-0.211,1.115-0.371,1.594-0.478c0.583-0.159,1.115-0.265,1.593-0.319c1.274-0.105,2.271-0.105,2.987,0
		c0.717,0.107,1.075,0.665,1.075,1.673c0,0.904-0.067,2.298-0.199,4.182c-0.133,1.886-0.278,4.5-0.438,7.846
		c0.584-1.327,1.275-2.828,2.071-4.5c0.797-1.673,1.646-3.239,2.549-4.7c0.902-1.46,1.832-2.681,2.788-3.665
		c0.956-0.982,1.858-1.474,2.709-1.474c0.583,0,1.261,0.12,2.031,0.359c0.769,0.239,1.499,0.557,2.19,0.956
		c0.689,0.398,1.314,0.836,1.872,1.314s0.942,0.956,1.154,1.434c0.212,0.532,0.345,1.354,0.398,2.47
		c0.053,1.115,0.053,2.363,0,3.744c0.425-1.008,0.902-1.991,1.435-2.947c0.529-0.956,1.075-1.845,1.633-2.668
		c0.558-0.823,1.127-1.526,1.712-2.111c0.584-0.584,1.115-0.982,1.594-1.195c0.637-0.265,1.406-0.319,2.31-0.16
		c0.902,0.16,1.793,0.438,2.669,0.836c0.876,0.398,1.646,0.864,2.31,1.394c0.664,0.532,1.076,1.036,1.235,1.514
		c0.159,0.531,0.291,1.354,0.398,2.469c0.105,1.115,0.185,2.337,0.238,3.665c0.053,1.328,0.08,2.696,0.08,4.102
		c0,1.408-0.027,2.643-0.08,3.704c-0.106,3.081-0.079,5.51,0.08,7.289c0.159,1.78,0.797,3.094,1.912,3.943
		c-0.745,0.478-1.435,0.836-2.071,1.075c-0.638,0.239-1.195,0.411-1.673,0.518c-0.585,0.16-1.089,0.239-1.514,0.239
		c-0.585,0-1.063-0.147-1.434-0.438c-0.372-0.292-0.665-0.677-0.877-1.155c-0.213-0.478-0.346-1.008-0.397-1.593
		c-0.054-0.583-0.08-1.167-0.08-1.752c0-0.53,0.04-1.42,0.119-2.668c0.08-1.247,0.146-2.668,0.199-4.262
		c0.053-1.593,0.053-3.226,0-4.899c-0.054-1.673-0.173-3.212-0.358-4.62c-0.187-1.406-0.491-2.562-0.916-3.465
		c-0.426-0.902-1.009-1.354-1.752-1.354c-0.638,0-1.249,0.386-1.832,1.155c-0.585,0.771-1.143,1.78-1.673,3.027
		c-0.532,1.249-0.996,2.629-1.395,4.142c-0.398,1.514-0.757,3.015-1.075,4.501c-0.318,1.487-0.558,2.855-0.717,4.102
		c-0.159,1.249-0.239,2.244-0.239,2.987l-0.079-0.717c0,1.009,0.012,1.939,0.039,2.788c0.026,0.85,0.066,1.7,0.12,2.549
		c0.052,0.318-0.239,0.597-0.877,0.836c-0.637,0.239-1.341,0.345-2.11,0.318c-0.771-0.027-1.474-0.199-2.111-0.518
		c-0.637-0.319-0.956-0.849-0.956-1.593c0-0.53,0-1.327,0-2.39c0-1.062-0.014-2.256-0.039-3.584
		c-0.027-1.327-0.054-2.721-0.08-4.182c-0.027-1.46-0.067-2.854-0.119-4.182c0-1.008-0.014-2.043-0.04-3.106
		c-0.027-1.062-0.094-2.031-0.199-2.908c-0.107-0.876-0.306-1.579-0.598-2.111C317.159,44.495,316.747,44.229,316.217,44.229z"></path>
	<path fill="none" stroke="#000000" stroke-width="2" stroke-miterlimit="2" d="M356.681,17.464
		c-0.106,1.912-0.292,4.116-0.558,6.612c-0.267,2.497-0.545,5.178-0.836,8.045c-0.293,2.868-0.585,5.869-0.877,9.001
		c-0.292,3.134-0.545,6.293-0.756,9.479c-0.213,3.186-0.307,5.775-0.279,7.767c0.026,1.991,0.146,3.625,0.358,4.899
		c0.212,1.274,0.504,2.284,0.876,3.027c0.371,0.744,0.85,1.461,1.435,2.151c-0.691,0.426-1.328,0.743-1.912,0.956
		c-0.585,0.211-1.089,0.371-1.514,0.478c-0.531,0.16-1.009,0.239-1.434,0.239c-0.797,0-1.487-0.386-2.071-1.155
		c-0.585-0.769-1.049-1.765-1.394-2.987c-0.347-1.221-0.611-2.589-0.797-4.103c-0.187-1.514-0.279-3.013-0.279-4.5
		c0-1.593,0.053-3.438,0.16-5.536c0.105-2.098,0.225-4.328,0.358-6.691c0.132-2.362,0.278-4.832,0.438-7.408
		c0.159-2.575,0.292-5.138,0.398-7.687c0.105-1.964,0.212-3.744,0.318-5.337c0.106-1.38,0.186-2.641,0.239-3.784
		c0.053-1.141,0.026-1.818-0.079-2.031c0.318-0.424,0.717-0.743,1.194-0.956c0.479-0.211,0.929-0.398,1.354-0.558
		c0.53-0.159,1.062-0.291,1.593-0.398h1.514c0.425,0,0.876,0.04,1.354,0.119C355.965,17.185,356.363,17.305,356.681,17.464z"></path>
	<path fill="none" stroke="#000000" stroke-width="2" stroke-miterlimit="2" d="M383.447,65.02
		c0.105,0.372,0.265,0.717,0.478,1.036c0.159,0.266,0.385,0.518,0.677,0.757c0.292,0.239,0.65,0.386,1.076,0.438
		c-0.372,0.744-0.745,1.249-1.115,1.513c-0.213,0.16-0.398,0.267-0.558,0.319c-0.479,0.159-1.195,0.239-2.151,0.239
		s-1.886-0.291-2.788-0.876c-0.318-0.265-0.61-0.664-0.876-1.195c-0.267-0.424-0.491-1.022-0.677-1.792
		c-0.187-0.769-0.333-1.765-0.438-2.987c-0.744,1.593-1.58,2.855-2.509,3.784c-0.93,0.93-1.846,1.606-2.748,2.031
		c-1.01,0.585-2.045,0.928-3.107,1.035c-1.328,0.106-2.589-0.119-3.783-0.677c-1.195-0.558-2.204-1.407-3.027-2.549
		c-0.823-1.141-1.447-2.535-1.872-4.182c-0.426-1.646-0.558-3.505-0.397-5.576c0.159-2.177,0.583-4.115,1.274-5.815
		c0.689-1.699,1.513-3.212,2.469-4.541c0.956-1.327,1.964-2.456,3.027-3.385c1.062-0.929,2.083-1.699,3.066-2.31
		c0.982-0.61,1.832-1.062,2.55-1.354c0.717-0.291,1.181-0.464,1.394-0.518c0.584-0.159,1.088-0.212,1.514-0.159
		c0.424,0.053,0.796,0.292,1.115,0.717c0.105,0.159,0.238,0.346,0.398,0.558c0.105,0.213,0.238,0.492,0.397,0.836
		c0.16,0.346,0.292,0.73,0.398,1.155c-1.274,0.585-2.469,1.235-3.584,1.952s-2.139,1.581-3.067,2.589
		c-0.93,1.009-1.74,2.23-2.43,3.664c-0.69,1.434-1.222,3.187-1.593,5.258c-0.531,2.603-0.386,4.7,0.438,6.292
		c0.822,1.593,1.951,2.258,3.385,1.992c0.85-0.265,1.673-0.769,2.47-1.514c0.689-0.637,1.42-1.593,2.19-2.868
		c0.77-1.274,1.5-3.027,2.19-5.257c0.266-3.186,0.49-5.695,0.678-7.527c0.186-1.833,0.358-3.226,0.518-4.182
		c0.211-1.115,0.371-1.858,0.478-2.23c0.159-0.265,0.479-0.518,0.956-0.757c0.478-0.239,1.008-0.438,1.593-0.597
		c0.584-0.16,1.115-0.251,1.594-0.279c0.478-0.026,0.797-0.013,0.956,0.04c0.105,0.054,0.159,0.705,0.159,1.952
		c0,1.249-0.04,2.815-0.12,4.7c-0.079,1.886-0.173,3.931-0.278,6.134c-0.107,2.204-0.199,4.289-0.279,6.253
		c-0.079,1.965-0.133,3.678-0.159,5.138C383.3,63.733,383.34,64.649,383.447,65.02z"></path>
</svg>
